<?xml version="1.0" encoding="UTF-8"?><svg xmlns="http://www.w3.org/2000/svg" viewBox="0 0 347.88 192.36"><defs><style>.d{fill:#1daf4b;}.e{fill:#fee600;}.f{fill:#db1f26;}</style></defs><g id="a"/><g id="b"><g id="c"><path class="d" d="M347.88,173.82c0-57.33-27.73-108.18-70.51-139.88-2.08,1.86-4.34,3.52-6.43,5.4-3.02,2.71-5.73,5.71-8.18,8.93-.36,.73-.71,1.47-1.08,2.19-1.95,3.92-3.85,7.85-5.73,11.79,34.33,25.21,56.69,65.77,56.93,111.57h0s0,.04,0,.06v.69c.1,9.57,7.89,17.29,17.49,17.29s17.51-7.84,17.51-17.51c0-.18-.02-.35-.03-.53h.04Z"/><path class="e" d="M291.18,45.26c-23.45-21.36-53.01-36.57-86.55-42.54C110.02-14.12,19.67,48.92,2.83,143.53h.04c-.02,.1-.05,.19-.06,.29-1.67,9.39,4.58,18.35,13.97,20.03,9.39,1.67,18.35-4.58,20.03-13.97,.04-.24,.06-.48,.09-.73C50.91,74.09,122.84,24.22,198.17,37.63c27.02,4.81,50.81,17.14,69.64,34.42,2.61,3.07,6.26,5.29,10.54,6.05,9.77,1.74,19.11-4.77,20.85-14.55,1.31-7.37-2.07-14.49-8.01-18.29Z"/><path class="f" d="M34.58,175.24c-.98-24.51,4.67-44.22,17.37-67.28,13.25-24.04,32.57-42.6,54.99-54.86,3.75-1.48,7.02-4.23,9.12-8.03,4.79-8.69,1.63-19.63-7.07-24.42-6.56-3.61-14.38-2.7-19.89,1.7-27.77,15.33-51.68,38.43-68.12,68.27C5.72,118.3-.54,146.05,.04,175.54c0,0,.31,16.64,16.2,16.82,20.17,.22,18.34-17.12,18.34-17.12Z"/></g></g></svg>