<svg width="161" height="55" viewBox="0 0 161 55" fill="none" xmlns="http://www.w3.org/2000/svg">
<path d="M77.9764 0.00549943C77.9764 0.00549943 73.0348 4.35555 71.4512 10.8504C73.9445 12.3132 76.2918 14.469 77.9259 17.6587C79.56 14.469 81.9073 12.3077 84.395 10.8449C83.6088 7.50673 81.7557 3.76161 77.9708 0" fill="#EEB2CA"/>
<path d="M77.9764 0.00549943C77.9764 0.00549943 73.0348 4.35555 71.4512 10.8504C73.9445 12.3132 76.2918 14.469 77.9259 17.6587C79.56 14.469 81.9073 12.3077 84.395 10.8449C83.6088 7.50673 81.7557 3.76161 77.9708 0" fill="#EEB2CA"/>
<path d="M61.3682 18.1148C55.6797 19.3687 51.6758 22.7728 51.6758 22.7728C57.4598 29.9276 63.9065 31.4784 68.4045 31.4784C69.7747 31.4784 70.9596 31.3354 71.8974 31.165C73.6158 30.846 75.2274 30.0706 76.4292 28.8332C77.395 27.8378 77.8274 26.8479 77.9285 25.924C77.2771 26.6004 76.3225 27.1284 74.9354 27.3484C74.5367 27.4089 74.138 27.4418 73.7393 27.4418C72.4084 27.4418 71.0888 27.1064 69.887 26.5179C67.5453 25.3686 63.8054 22.8993 61.3682 18.1203" fill="#EEB2CA"/>
<path d="M61.3682 18.1148C55.6797 19.3687 51.6758 22.7728 51.6758 22.7728C57.4598 29.9276 63.9065 31.4784 68.4045 31.4784C69.7747 31.4784 70.9596 31.3354 71.8974 31.165C73.6158 30.846 75.2274 30.0706 76.4292 28.8332C77.395 27.8378 77.8274 26.8479 77.9285 25.924C77.2771 26.6004 76.3225 27.1284 74.9354 27.3484C74.5367 27.4089 74.138 27.4418 73.7393 27.4418C72.4084 27.4418 71.0888 27.1064 69.887 26.5179C67.5453 25.3686 63.8054 22.8993 61.3682 18.1203" fill="#EEB2CA"/>
<path d="M59.6939 7.82584C59.239 7.82584 58.9863 7.84233 58.9863 7.84233C59.0706 12.0934 60.014 15.4591 61.3673 18.1153C62.6477 17.8348 64.0122 17.6588 65.433 17.6588C67.3647 17.6588 69.4032 17.9778 71.4866 18.7697C70.7453 15.9155 70.8745 13.2373 71.4585 10.8505C66.7583 8.09531 61.5583 7.82584 59.6995 7.82584" fill="#EEB2CA"/>
<path d="M59.6939 7.82584C59.239 7.82584 58.9863 7.84233 58.9863 7.84233C59.0706 12.0934 60.014 15.4591 61.3673 18.1153C62.6477 17.8348 64.0122 17.6588 65.433 17.6588C67.3647 17.6588 69.4032 17.9778 71.4866 18.7697C70.7453 15.9155 70.8745 13.2373 71.4585 10.8505C66.7583 8.09531 61.5583 7.82584 59.6995 7.82584" fill="#EEB2CA"/>
<path d="M71.458 10.8504C70.874 13.2372 70.7505 15.9154 71.4861 18.7696C72.4295 19.1326 73.3842 19.589 74.3388 20.161C75.2092 20.6834 75.9954 21.3323 76.6243 22.1188C76.6356 21.1234 76.8602 20.1335 77.2308 19.2041C77.4442 18.6651 77.6801 18.1482 77.9328 17.6587C76.2986 14.469 73.9513 12.3078 71.458 10.8504Z" fill="#EB80A8"/>
<path d="M71.458 10.8504C70.874 13.2372 70.7505 15.9154 71.4861 18.7696C72.4295 19.1326 73.3842 19.589 74.3388 20.161C75.2092 20.6834 75.9954 21.3323 76.6243 22.1188C76.6356 21.1234 76.8602 20.1335 77.2308 19.2041C77.4442 18.6651 77.6801 18.1482 77.9328 17.6587C76.2986 14.469 73.9513 12.3078 71.458 10.8504Z" fill="#EB80A8"/>
<path d="M65.4328 17.6585C64.0121 17.6585 62.6475 17.829 61.3672 18.115C63.7987 22.894 67.5387 25.3632 69.886 26.5126C71.0877 27.1011 72.4074 27.4365 73.7383 27.4365C74.137 27.4365 74.5357 27.4035 74.9344 27.343C76.3214 27.1231 77.2761 26.5951 77.9275 25.9187V25.9077C76.5853 25.8802 75.4566 25.2258 74.6255 24.5218C73.7214 23.7574 73.0363 22.7785 72.5421 21.7116C72.0817 20.7107 71.7335 19.7318 71.4864 18.7694C69.403 17.9775 67.3646 17.6585 65.4328 17.6585Z" fill="#EB80A8"/>
<path d="M65.4328 17.6585C64.0121 17.6585 62.6475 17.829 61.3672 18.115C63.7987 22.894 67.5387 25.3632 69.886 26.5126C71.0877 27.1011 72.4074 27.4365 73.7383 27.4365C74.137 27.4365 74.5357 27.4035 74.9344 27.343C76.3214 27.1231 77.2761 26.5951 77.9275 25.9187V25.9077C76.5853 25.8802 75.4566 25.2258 74.6255 24.5218C73.7214 23.7574 73.0363 22.7785 72.5421 21.7116C72.0817 20.7107 71.7335 19.7318 71.4864 18.7694C69.403 17.9775 67.3646 17.6585 65.4328 17.6585Z" fill="#EB80A8"/>
<path d="M71.4861 18.7694C71.7332 19.7318 72.0813 20.7162 72.5418 21.7116C73.036 22.773 73.7211 23.7574 74.6252 24.5218C75.4563 25.2257 76.585 25.8857 77.9271 25.9077C77.0062 24.9453 76.6973 23.6969 76.6299 22.6245C76.6187 22.454 76.6131 22.2835 76.6187 22.1185C75.9954 21.3376 75.2036 20.6832 74.3332 20.1608C73.3785 19.5888 72.4239 19.1324 71.4805 18.7694" fill="#E96BB0"/>
<path d="M71.4861 18.7694C71.7332 19.7318 72.0813 20.7162 72.5418 21.7116C73.036 22.773 73.7211 23.7574 74.6252 24.5218C75.4563 25.2257 76.585 25.8857 77.9271 25.9077C77.0062 24.9453 76.6973 23.6969 76.6299 22.6245C76.6187 22.454 76.6131 22.2835 76.6187 22.1185C75.9954 21.3376 75.2036 20.6832 74.3332 20.1608C73.3785 19.5888 72.4239 19.1324 71.4805 18.7694" fill="#E96BB0"/>
<path d="M94.4941 18.1099C92.0626 22.889 88.3226 25.3527 85.9809 26.5021C84.7792 27.0905 83.4595 27.426 82.1287 27.426C81.73 27.426 81.3312 27.393 80.9325 27.3325C79.5455 27.1125 78.5909 26.5846 77.9395 25.9081C78.0405 26.8375 78.4729 27.8219 79.4388 28.8228C80.6462 30.0602 82.2522 30.8411 83.9706 31.1546C84.9027 31.3251 86.0932 31.4681 87.4634 31.4681C91.9615 31.4681 98.4082 29.9172 104.192 22.7625C104.192 22.7625 100.188 19.3528 94.4997 18.1044" fill="#EEB2CA"/>
<path d="M94.4941 18.1099C92.0626 22.889 88.3226 25.3527 85.9809 26.5021C84.7792 27.0905 83.4595 27.426 82.1287 27.426C81.73 27.426 81.3312 27.393 80.9325 27.3325C79.5455 27.1125 78.5909 26.5846 77.9395 25.9081C78.0405 26.8375 78.4729 27.8219 79.4388 28.8228C80.6462 30.0602 82.2522 30.8411 83.9706 31.1546C84.9027 31.3251 86.0932 31.4681 87.4634 31.4681C91.9615 31.4681 98.4082 29.9172 104.192 22.7625C104.192 22.7625 100.188 19.3528 94.4997 18.1044" fill="#EEB2CA"/>
<path d="M96.1725 7.82051C94.3138 7.82051 89.1026 8.08998 84.4023 10.8507C85.1268 13.9249 84.9414 16.6526 84.5147 18.7204C86.5475 17.967 88.541 17.659 90.4278 17.659C91.8486 17.659 93.2188 17.8295 94.4935 18.1155C95.8468 15.4592 96.7959 12.0881 96.8801 7.83701C96.8801 7.83701 96.6274 7.82051 96.1725 7.82051Z" fill="#EEB2CA"/>
<path d="M96.1725 7.82051C94.3138 7.82051 89.1026 8.08998 84.4023 10.8507C85.1268 13.9249 84.9414 16.6526 84.5147 18.7204C86.5475 17.967 88.541 17.659 90.4278 17.659C91.8486 17.659 93.2188 17.8295 94.4935 18.1155C95.8468 15.4592 96.7959 12.0881 96.8801 7.83701C96.8801 7.83701 96.6274 7.82051 96.1725 7.82051Z" fill="#EEB2CA"/>
<path d="M84.4008 10.8504C81.9131 12.3133 79.5602 14.4745 77.9316 17.6642C78.1843 18.1537 78.4202 18.6706 78.6336 19.2151C79.0042 20.139 79.2288 21.1234 79.2401 22.1133C79.8634 21.3323 80.6552 20.6834 81.52 20.161C82.5195 19.5615 83.5191 19.0886 84.5131 18.7201C84.9342 16.6523 85.1252 13.9246 84.4008 10.8504Z" fill="#EB80A8"/>
<path d="M84.4008 10.8504C81.9131 12.3133 79.5602 14.4745 77.9316 17.6642C78.1843 18.1537 78.4202 18.6706 78.6336 19.2151C79.0042 20.139 79.2288 21.1234 79.2401 22.1133C79.8634 21.3323 80.6552 20.6834 81.52 20.161C82.5195 19.5615 83.5191 19.0886 84.5131 18.7201C84.9342 16.6523 85.1252 13.9246 84.4008 10.8504Z" fill="#EB80A8"/>
<path d="M77.9334 17.6585C77.6807 18.1479 77.4505 18.6649 77.2315 19.2038C76.8609 20.1332 76.6362 21.1231 76.625 22.1185C76.7317 22.2505 76.8328 22.388 76.9282 22.531C77.4056 23.2294 77.8323 24.0983 77.9278 25.0662C78.0289 24.0928 78.4501 23.2239 78.9274 22.5255C79.0228 22.3825 79.1295 22.245 79.2362 22.1075C79.2194 21.1176 78.9948 20.1332 78.6298 19.2093C78.4164 18.6649 78.1805 18.1479 77.9278 17.6585" fill="#E96BB0"/>
<path d="M77.9334 17.6585C77.6807 18.148 77.4505 18.6649 77.2315 19.2039C76.8609 20.1333 76.6362 21.1232 76.625 22.1186C76.7317 22.2506 76.8328 22.3881 76.9282 22.531C77.4056 23.2295 77.8323 24.0984 77.9278 25.0663C78.0289 24.0929 78.4501 23.224 78.9274 22.5255C79.0228 22.3826 79.1295 22.2451 79.2362 22.1076C79.2194 21.1177 78.9948 20.1333 78.6298 19.2094C78.4164 18.6649 78.1805 18.148 77.9278 17.6585" fill="#E96BB0"/>
<path d="M76.625 22.1188C76.625 22.2893 76.625 22.4597 76.6362 22.6247C76.7036 23.6971 77.0125 24.951 77.9334 25.9079C77.9053 25.6164 77.9053 25.3359 77.9334 25.0665C77.8323 24.0986 77.4112 23.2242 76.9339 22.5312C76.8384 22.3882 76.7373 22.2508 76.6306 22.1188" fill="#F060A6"/>
<path d="M90.4285 17.6585C88.5416 17.6585 86.5481 17.961 84.5153 18.7199C84.3637 19.4679 84.1783 20.1333 83.993 20.6942C83.4596 22.3221 82.4768 23.7959 81.0673 24.8133C79.9667 25.6107 78.939 25.9132 78.0125 25.9132C77.99 25.9132 77.9619 25.9132 77.9395 25.9132C78.5909 26.5951 79.5455 27.1231 80.9325 27.343C81.3313 27.4035 81.73 27.4365 82.1287 27.4365C83.4595 27.4365 84.7792 27.1011 85.9809 26.5126C88.3226 25.3632 92.0626 22.894 94.4941 18.1205C93.2138 17.84 91.8492 17.664 90.4285 17.664" fill="#EB80A8"/>
<path d="M90.4285 17.6585C88.5416 17.6585 86.5481 17.961 84.5153 18.7199C84.3637 19.4679 84.1783 20.1333 83.993 20.6942C83.4596 22.3221 82.4768 23.7959 81.0673 24.8133C79.9667 25.6107 78.939 25.9132 78.0125 25.9132C77.99 25.9132 77.9619 25.9132 77.9395 25.9132C78.5909 26.5951 79.5455 27.1231 80.9325 27.343C81.3313 27.4035 81.73 27.4365 82.1287 27.4365C83.4595 27.4365 84.7792 27.1011 85.9809 26.5126C88.3226 25.3632 92.0626 22.894 94.4941 18.1205C93.2138 17.84 91.8492 17.664 90.4285 17.664" fill="#EB80A8"/>
<path d="M84.5153 18.7143C83.5269 19.0828 82.5274 19.5557 81.5222 20.1551C80.6518 20.6721 79.8656 21.3265 79.2423 22.1074C79.2423 22.2834 79.2423 22.4539 79.231 22.6299C79.1636 23.7023 78.8548 24.9507 77.9395 25.9076C77.9619 25.9076 77.99 25.9076 78.0125 25.9076C78.939 25.9076 79.9723 25.6051 81.0673 24.8077C82.4712 23.7903 83.4596 22.3164 83.993 20.6886C84.1783 20.1276 84.3637 19.4622 84.5153 18.7143Z" fill="#E96BB0"/>
<path d="M84.5153 18.7143C83.5269 19.0828 82.5274 19.5557 81.5222 20.1551C80.6518 20.6721 79.8656 21.3265 79.2423 22.1074C79.2423 22.2834 79.2423 22.4539 79.231 22.6299C79.1636 23.7023 78.8548 24.9507 77.9395 25.9076C77.9619 25.9076 77.99 25.9076 78.0125 25.9076C78.939 25.9076 79.9723 25.6051 81.0673 24.8077C82.4712 23.7903 83.4596 22.3164 83.993 20.6886C84.1783 20.1276 84.3637 19.4622 84.5153 18.7143Z" fill="#E96BB0"/>
<path d="M77.9316 25.9077V25.9138L77.9378 25.9077H77.9316Z" fill="#DF69A6"/>
<path d="M79.2401 22.1079C79.1334 22.2454 79.0267 22.3828 78.9312 22.5258C78.4539 23.2243 78.0271 24.0932 77.9316 25.0666C77.9597 25.336 77.9597 25.6165 77.9316 25.9025V25.9135H77.9373C78.8526 24.9566 79.1614 23.7082 79.2288 22.6358C79.2401 22.4598 79.2457 22.2893 79.2401 22.1134" fill="#F060A6"/>
<path d="M77.9332 25.0668C77.9051 25.3362 77.9051 25.6167 77.9332 25.9027C77.9612 25.6167 77.9612 25.3417 77.9332 25.0668Z" fill="#DB529C"/>
<path d="M160.657 39.8604C160.657 40.4874 160.151 40.9823 159.494 40.9823C158.837 40.9823 158.326 40.4874 158.326 39.8604C158.326 39.2335 158.843 38.7495 159.494 38.7495C160.146 38.7495 160.657 39.2445 160.657 39.8604ZM158.618 39.8604C158.618 40.3554 158.994 40.7458 159.505 40.7458C160.016 40.7458 160.37 40.3554 160.37 39.8659C160.37 39.3765 160.005 38.975 159.5 38.975C158.994 38.975 158.624 39.3765 158.624 39.8604H158.618ZM159.315 40.4434H159.051V39.3325C159.152 39.3105 159.298 39.2995 159.489 39.2995C159.702 39.2995 159.797 39.3325 159.882 39.382C159.943 39.4315 159.994 39.5195 159.994 39.6239C159.994 39.7449 159.899 39.8384 159.758 39.8824V39.8934C159.87 39.9319 159.932 40.0144 159.966 40.1629C160 40.3334 160.022 40.3994 160.05 40.4379H159.769C159.736 40.3994 159.713 40.2949 159.68 40.1684C159.657 40.0474 159.59 39.9924 159.444 39.9924H159.32V40.4379L159.315 40.4434ZM159.32 39.8164H159.444C159.59 39.8164 159.708 39.7669 159.708 39.6514C159.708 39.5524 159.629 39.481 159.466 39.481C159.399 39.481 159.348 39.4865 159.32 39.4975V39.8164Z" fill="#021D49"/>
<path d="M18.7618 52.6352C18.5765 52.5692 18.4193 52.4922 18.307 52.4153C18.1609 52.3163 18.0879 52.2448 18.0486 52.2008C17.9925 52.1403 17.9082 51.9808 17.8746 51.7333C17.8465 51.5023 17.8296 51.2714 17.8296 51.0404C17.8184 50.2705 17.8128 49.5391 17.8128 48.8461V44.9305C17.8128 44.3421 17.8184 43.7371 17.8296 43.1212C17.8409 42.6813 17.8633 42.2138 17.8914 41.7409C17.9195 41.2019 17.9813 40.9599 18.0149 40.8719C18.0767 40.7015 18.2059 40.542 18.3968 40.4045C18.5203 40.311 18.7787 40.201 19.2953 40.19L19.9018 40.1735V38.7767H14.5726L14.421 39.1726C14.3817 39.2716 14.2244 39.6401 13.9381 40.2945C13.6517 40.9544 13.281 41.7848 12.8374 42.7802C12.3882 43.7756 11.8828 44.892 11.3212 46.1239C10.945 46.9543 10.5575 47.7847 10.17 48.6151L5.75619 38.7767H0.443873V40.0965L0.960504 40.1845C1.11212 40.212 1.28621 40.2505 1.48837 40.3C1.6456 40.3385 1.79722 40.41 1.94323 40.5035C2.07238 40.586 2.19031 40.707 2.28577 40.8609C2.37001 40.9984 2.42055 41.2019 2.43178 41.4549C2.44301 41.8288 2.45424 42.1423 2.45424 42.4008V44.881C2.45424 45.7279 2.44863 46.5529 2.43178 47.3393C2.42055 48.1257 2.39809 48.7746 2.37001 49.3356C2.35878 49.968 2.31385 50.5125 2.24085 50.9469C2.17346 51.3429 2.06677 51.6728 1.92638 51.9313C1.80284 52.1513 1.63999 52.3218 1.44344 52.4428C1.2132 52.5802 0.898733 52.6902 0.500028 52.7672L0.00585938 52.8662V54.1696H6.48621V52.8387L5.95273 52.7617C5.46418 52.6957 5.06547 52.5857 4.81277 52.4483C4.59377 52.3273 4.43653 52.1733 4.32984 51.9753C4.20629 51.7388 4.12768 51.4309 4.09398 51.0569C4.05467 50.6279 4.03783 50.1055 4.03783 49.5061V46.9873C4.03783 46.2669 4.03783 45.585 4.04906 44.936L4.06591 43.4842C4.31861 44.0286 4.59938 44.6446 4.90262 45.321C5.25079 46.0964 5.62703 46.9268 6.03135 47.8122C6.43005 48.6976 6.8456 49.616 7.26677 50.5729L8.70435 53.8341H9.67585L9.82185 53.4162C9.84431 53.3502 9.90608 53.2017 10.0015 52.9872C10.1082 52.7397 10.2262 52.4647 10.3497 52.1623C10.4676 51.8708 10.5912 51.5848 10.7091 51.3044C10.8214 51.0404 10.9113 50.8479 10.9843 50.6994L12.2028 48.0322C12.5679 47.2293 12.9329 46.4374 13.2979 45.6674C13.6629 44.892 14.0279 44.0946 14.3985 43.2807L14.4266 43.2147V48.3677C14.4266 49.1376 14.4154 49.968 14.3873 50.8204C14.3761 51.0569 14.348 51.2989 14.3143 51.5353C14.275 51.7828 14.2188 51.9313 14.1851 52.0083C14.1065 52.1623 13.9268 52.3218 13.6629 52.4648C13.3596 52.6297 12.9666 52.7232 12.4836 52.7452L11.894 52.7727V54.1751H20.0309V52.7837L19.4357 52.7617C19.183 52.7507 18.964 52.7122 18.7787 52.6517L18.7618 52.6352Z" fill="#021D49"/>
<path d="M110.412 52.6352C110.227 52.5692 110.07 52.4922 109.958 52.4153C109.812 52.3163 109.739 52.2448 109.699 52.2008C109.643 52.1403 109.559 51.9808 109.525 51.7333C109.497 51.5023 109.48 51.2714 109.48 51.0404C109.469 50.2705 109.463 49.5391 109.463 48.8461V44.9305C109.463 44.3421 109.469 43.7371 109.48 43.1212C109.492 42.6813 109.514 42.2138 109.542 41.7409C109.57 41.2019 109.632 40.9599 109.666 40.8719C109.727 40.7015 109.857 40.542 110.047 40.4045C110.171 40.311 110.429 40.201 110.946 40.19L111.552 40.1735V38.7767H106.223L106.072 39.1726C106.032 39.2716 105.875 39.6401 105.589 40.2945C105.302 40.9544 104.932 41.7848 104.488 42.7802C104.039 43.7756 103.533 44.892 102.972 46.1239C102.596 46.9543 102.208 47.7847 101.821 48.6151L97.4068 38.7767H92.1001V40.0965L92.6168 40.1845C92.7684 40.212 92.9425 40.2505 93.1446 40.3C93.3019 40.3385 93.4535 40.41 93.5995 40.5035C93.7286 40.586 93.8466 40.707 93.942 40.8609C94.0263 40.9984 94.0768 41.2019 94.088 41.4549C94.0993 41.8288 94.1105 42.1423 94.1105 42.4008V44.881C94.1105 45.7279 94.1049 46.5529 94.088 47.3393C94.0768 48.1257 94.0543 48.7746 94.0263 49.3356C94.015 49.968 93.9701 50.5125 93.8971 50.9469C93.8297 51.3429 93.723 51.6728 93.5826 51.9313C93.4591 52.1513 93.2962 52.3218 93.0997 52.4428C92.8695 52.5802 92.555 52.6902 92.1563 52.7672L91.6621 52.8662V54.1696H98.1481V52.8387L97.6146 52.7617C97.126 52.6957 96.7273 52.5857 96.4746 52.4483C96.2556 52.3273 96.0984 52.1733 95.9917 51.9753C95.8682 51.7388 95.7895 51.4309 95.7559 51.0569C95.7165 50.6279 95.6997 50.1055 95.6997 49.5061V46.9873C95.6997 46.2669 95.6997 45.585 95.7109 44.936L95.7278 43.4842C95.9805 44.0286 96.2613 44.6446 96.5645 45.321C96.9127 46.0964 97.2889 46.9268 97.6932 47.8122C98.0919 48.6976 98.5075 49.616 98.9286 50.5729L100.366 53.8341H101.338L101.484 53.4162C101.506 53.3502 101.568 53.2017 101.663 52.9872C101.77 52.7397 101.888 52.4647 102.012 52.1623C102.13 51.8708 102.253 51.5848 102.371 51.3044C102.483 51.0404 102.573 50.8479 102.646 50.6994L103.865 48.0322C104.23 47.2293 104.595 46.4374 104.96 45.6674C105.325 44.892 105.69 44.0946 106.06 43.2807L106.088 43.2147V48.3677C106.088 49.1376 106.077 49.968 106.049 50.8204C106.038 51.0569 106.01 51.2989 105.976 51.5353C105.937 51.7828 105.881 51.9313 105.847 52.0083C105.768 52.1623 105.589 52.3218 105.325 52.4648C105.022 52.6297 104.628 52.7232 104.145 52.7452L103.556 52.7727V54.1751H111.693V52.7837L111.098 52.7617C110.845 52.7507 110.626 52.7122 110.441 52.6517L110.412 52.6352Z" fill="#021D49"/>
<path d="M34.692 40.9438C34.0069 40.2234 33.1645 39.6405 32.1874 39.217C31.2103 38.788 30.0928 38.5736 28.8686 38.5736C27.7568 38.5736 26.6786 38.755 25.6734 39.1125C24.657 39.47 23.7585 39.9924 22.9948 40.6688C22.2311 41.3453 21.6133 42.1812 21.1697 43.1546C20.7205 44.128 20.4902 45.2389 20.4902 46.4488C20.4902 47.5926 20.7092 48.6595 21.136 49.6164C21.5628 50.5678 22.1524 51.4037 22.8937 52.0967C23.6349 52.7841 24.5054 53.323 25.4881 53.697C26.4652 54.071 27.5153 54.258 28.6103 54.258C29.7054 54.258 30.7779 54.0655 31.7607 53.686C32.749 53.3065 33.6306 52.7511 34.3775 52.0417C35.1244 51.3323 35.7196 50.4853 36.152 49.5284C36.59 48.5605 36.809 47.4991 36.809 46.3718C36.809 45.3599 36.6237 44.3755 36.2643 43.4406C35.9049 42.5057 35.3715 41.6642 34.692 40.9493V40.9438ZM25.3982 50.9363C25.0164 50.3644 24.7244 49.6934 24.5278 48.9345C24.3257 48.1646 24.2246 47.3452 24.2246 46.5038C24.2246 45.6623 24.32 44.8924 24.4997 44.106C24.6794 43.3416 24.9546 42.6486 25.3308 42.0547C25.6902 41.4773 26.1563 41.0043 26.7123 40.6414C27.2401 40.2949 27.8859 40.1244 28.6328 40.1244C29.3797 40.1244 29.9974 40.3004 30.5196 40.6414C31.0756 41.0043 31.5416 41.4883 31.9179 42.0712C32.3054 42.6761 32.5974 43.3636 32.7883 44.1115C32.9848 44.8759 33.0803 45.6403 33.0803 46.3883C33.0803 47.1362 32.9792 47.9446 32.7883 48.72C32.5974 49.4844 32.3054 50.1774 31.9291 50.7823C31.5585 51.3707 31.098 51.8547 30.5477 52.2232C30.0311 52.5696 29.4077 52.7456 28.7002 52.7456C27.9926 52.7456 27.3356 52.5806 26.8021 52.2617C26.2462 51.9317 25.7801 51.4807 25.4095 50.9308L25.3982 50.9363Z" fill="#021D49"/>
<path d="M50.793 49.2146C50.6414 49.5885 50.4729 49.957 50.3045 50.309C50.1528 50.6224 49.9619 50.9194 49.7429 51.1889C49.5295 51.4474 49.2656 51.6838 48.9623 51.8873C48.6647 52.0853 48.2772 52.2503 47.7943 52.3768C47.5978 52.4318 47.3731 52.4812 47.1036 52.5142C46.8284 52.5527 46.5533 52.5802 46.2781 52.5967C46.0086 52.6132 45.7559 52.6297 45.5312 52.6352C45.3066 52.6407 45.1381 52.6462 45.0371 52.6462C44.79 52.6462 44.5485 52.6297 44.307 52.6022C44.0656 52.5747 43.8297 52.5362 43.6107 52.4922C43.4254 52.4538 43.2682 52.4098 43.1446 52.3603C43.1165 52.3493 43.0885 52.3383 43.0716 52.3273C43.0435 52.2503 43.0042 52.1018 42.993 51.8433C42.9705 51.4694 42.9537 51.0734 42.9425 50.6774C42.9425 50.2265 42.9425 49.8195 42.9312 49.4566C42.9256 49.0991 42.92 48.7526 42.92 48.4172V44.837C42.92 44.4466 42.92 44.0726 42.9312 43.7041L42.9537 42.5823C42.9593 42.2028 42.9705 41.7848 42.9818 41.3339C42.9874 41.1029 43.0379 40.9214 43.1222 40.8004C43.2232 40.663 43.3412 40.553 43.4703 40.4815C43.6276 40.3935 43.8016 40.3275 43.9813 40.289C44.2284 40.2395 44.4137 40.201 44.5654 40.179L45.0932 40.102V38.7767H37.4392V40.124L37.9895 40.1845C38.2872 40.2175 38.5736 40.2835 38.8319 40.3825C39.0453 40.465 39.2137 40.575 39.3373 40.7235C39.3373 40.7235 39.3654 40.7565 39.3878 40.8499C39.4215 40.9819 39.444 41.1304 39.4608 41.3064C39.4777 41.4879 39.4889 41.6859 39.4889 41.9058V47.5538C39.4889 47.9442 39.4889 48.3237 39.4777 48.6921L39.4552 49.726C39.4496 50.045 39.444 50.298 39.444 50.485C39.444 50.6719 39.4327 50.8754 39.4159 51.0679C39.3934 51.2769 39.371 51.4749 39.3485 51.6618C39.326 51.8323 39.2924 51.9753 39.2587 52.0908C39.2306 52.1788 39.2081 52.2173 39.2137 52.2173C39.0958 52.3493 38.9217 52.4537 38.6971 52.5362C38.4051 52.6407 38.1075 52.7177 37.8211 52.7617L37.2988 52.8387V54.1641H51.3433L52.2755 49.0771L51.0008 48.7031L50.793 49.2201V49.2146Z" fill="#021D49"/>
<path d="M67.074 49.2148C66.9224 49.5887 66.7539 49.9572 66.5855 50.3092C66.4338 50.6226 66.2429 50.9196 66.0239 51.1891C65.8105 51.4475 65.5466 51.684 65.2433 51.8875C64.9457 52.0855 64.5582 52.2505 64.0809 52.3769C63.8844 52.4319 63.6598 52.4814 63.3902 52.5144C63.115 52.5529 62.8399 52.5804 62.5647 52.5969C62.2952 52.6134 62.0425 52.6299 61.8179 52.6354C61.5932 52.6409 61.4248 52.6464 61.3237 52.6464C61.0766 52.6464 60.8351 52.6299 60.5937 52.6024C60.3522 52.5749 60.1163 52.5364 59.8973 52.4924C59.712 52.4539 59.5548 52.4099 59.4312 52.3604C59.4032 52.3494 59.3807 52.3385 59.3582 52.3275C59.3302 52.2505 59.2909 52.1075 59.2796 51.8435C59.2572 51.4695 59.2403 51.0736 59.2291 50.6721C59.2291 50.2212 59.2291 49.8142 59.2179 49.4513C59.2122 49.0938 59.2066 48.7473 59.2066 48.4119V44.8317C59.2066 44.4413 59.2066 44.0673 59.2179 43.6988L59.2403 42.577C59.2459 42.1975 59.2572 41.7795 59.2684 41.3286C59.274 41.0976 59.3245 40.9161 59.4088 40.7951C59.5099 40.6577 59.6278 40.5477 59.7569 40.4762C59.9142 40.3882 60.0883 40.3222 60.268 40.2837C60.515 40.2342 60.7004 40.1957 60.852 40.1737L61.3798 40.0967V38.7713H53.7258V40.1187L54.2762 40.1792C54.5738 40.2122 54.8602 40.2782 55.1185 40.3772C55.3319 40.4597 55.5004 40.5697 55.6183 40.7126C55.6183 40.7126 55.6464 40.7456 55.6688 40.8391C55.7025 40.9711 55.725 41.1251 55.7418 41.2956C55.7587 41.4771 55.7699 41.6805 55.7699 41.895V47.5429C55.7699 47.9334 55.7699 48.3129 55.7587 48.6813L55.7362 49.7152C55.7306 50.0342 55.725 50.2872 55.725 50.4796C55.725 50.6721 55.7137 50.8701 55.6969 51.0626C55.6801 51.2716 55.652 51.4695 55.6295 51.6565C55.607 51.8215 55.579 51.9645 55.5397 52.08C55.5116 52.168 55.4891 52.2065 55.4891 52.2065C55.3712 52.3385 55.1971 52.4429 54.9725 52.5254C54.6805 52.6299 54.3829 52.7069 54.0965 52.7509L53.5742 52.8279V54.1533H67.6187L68.5509 49.0663L67.2762 48.6923L67.0684 49.2093L67.074 49.2148Z" fill="#021D49"/>
<path d="M76.6063 40.1022L77.1397 40.1792C77.325 40.2067 77.516 40.2342 77.7069 40.2672C77.8698 40.2947 78.0101 40.3332 78.1337 40.3772C78.2123 40.4102 78.2741 40.4487 78.3022 40.4817C78.3022 40.4817 78.3134 40.5092 78.3134 40.5806C78.3134 40.6191 78.3078 40.6961 78.2628 40.8226C78.2179 40.9546 78.1618 41.0866 78.1 41.2186C78.0326 41.3561 77.9652 41.4881 77.8922 41.609C77.8192 41.7355 77.7462 41.851 77.6676 41.9775C77.5553 42.1755 77.3868 42.4505 77.151 42.8189C76.9207 43.1874 76.6736 43.5668 76.4097 43.9628L75.6404 45.1397C75.6067 45.1892 75.573 45.2387 75.5449 45.2882C75.4831 45.1892 75.4214 45.0847 75.354 44.9857C75.1069 44.5897 74.8598 44.2048 74.6184 43.8308C74.3825 43.4624 74.1635 43.1104 73.9669 42.7859C73.7648 42.445 73.5851 42.159 73.4447 41.928C73.2201 41.5486 73.0179 41.2076 72.8438 40.8941C72.6866 40.6136 72.6417 40.4707 72.6304 40.4157C72.6698 40.3882 72.7259 40.3607 72.7933 40.3387C72.9225 40.2947 73.0741 40.2617 73.2313 40.2397C73.4166 40.2177 73.6076 40.1957 73.7929 40.1847L74.3713 40.1462V38.7713H67.043V40.1517L67.6326 40.1792C67.7898 40.1847 67.9246 40.2287 68.0425 40.3002C68.2054 40.4047 68.3795 40.5477 68.5592 40.7346C68.7445 40.9326 68.9354 41.1746 69.1207 41.4551C69.3285 41.774 69.5587 42.1205 69.8171 42.5055C69.9462 42.6979 70.1147 42.9509 70.3112 43.2589C70.5134 43.5723 70.7268 43.9078 70.9514 44.2708C71.176 44.6282 71.4063 44.9967 71.6421 45.3762C71.878 45.7556 72.0914 46.1021 72.2879 46.41C72.4844 46.7235 72.6473 46.982 72.7821 47.191L72.9281 47.4219C72.9281 48.0654 72.9281 48.6153 72.9168 49.0773C72.9112 49.5777 72.9 50.0067 72.8888 50.3971C72.8888 50.6006 72.8888 50.8151 72.8775 51.0296C72.8719 51.2331 72.8607 51.431 72.8382 51.618C72.8214 51.7885 72.7989 51.948 72.7652 52.0855C72.7596 52.1185 72.754 52.1405 72.7484 52.1515C72.462 52.4649 72.2767 52.5584 72.1924 52.5859C71.9678 52.6574 71.7039 52.7124 71.4006 52.7454L70.8503 52.8059V54.1533H78.2797V52.8444L77.7687 52.7509C77.4991 52.7014 77.2071 52.6354 76.9095 52.5474C76.7242 52.4924 76.5838 52.3934 76.4546 52.2065C76.4546 52.2065 76.3985 52.1075 76.376 51.7665C76.3536 51.409 76.3479 51.0461 76.3479 50.6886V46.916C76.4996 46.696 76.6849 46.421 76.9095 46.0801C77.1903 45.6621 77.4879 45.2167 77.7911 44.7547C78.0888 44.2983 78.3864 43.8583 78.6728 43.4349C78.9648 43.0059 79.1894 42.6594 79.3523 42.412C79.5881 42.049 79.8127 41.7245 80.0093 41.4496C80.1946 41.1911 80.3855 40.9711 80.5821 40.7951C80.7618 40.6301 80.9639 40.4927 81.1773 40.3827C81.3851 40.2837 81.6434 40.2067 81.9523 40.1627L82.4857 40.0857V38.7548H76.6006V40.0857L76.6063 40.1022Z" fill="#021D49"/>
<path d="M129.23 52.5913C129.062 52.5143 128.922 52.4263 128.809 52.3273C128.691 52.2229 128.596 52.1184 128.528 52.0249C128.45 51.9149 128.416 51.8599 128.405 51.8434L127.972 50.925C127.855 50.6775 127.725 50.353 127.579 49.9516C127.259 49.1267 126.939 48.2908 126.614 47.4493C126.293 46.6024 125.962 45.728 125.62 44.8261C125.277 43.9187 124.918 42.9783 124.541 41.9994C124.165 41.0205 123.772 39.9866 123.357 38.8977L123.205 38.5073H122.25L122.076 38.8152C122.031 38.8977 121.958 39.0022 121.868 39.1287C121.79 39.2442 121.683 39.3707 121.554 39.5082C121.436 39.6346 121.29 39.7666 121.127 39.8876C120.964 40.0086 120.785 40.1076 120.594 40.1901L120.021 40.4376L120.369 41.1855C120.077 41.8509 119.774 42.5603 119.448 43.3138C119.089 44.1552 118.724 44.9966 118.353 45.827L117.28 48.2578C116.932 49.0442 116.618 49.7426 116.337 50.353C116.039 51.002 115.787 51.4859 115.59 51.7994C115.332 52.2119 115.236 52.3218 115.203 52.3493H115.197C115.158 52.3878 115.074 52.4428 114.905 52.5418C114.737 52.6408 114.518 52.7068 114.259 52.7343L113.709 52.7948V54.1587H119.229V52.8333L118.696 52.7508C118.527 52.7288 118.347 52.6958 118.157 52.6628C118.016 52.6408 117.881 52.6023 117.758 52.5473C117.668 52.5088 117.595 52.4648 117.556 52.4043C117.556 52.3108 117.595 51.9919 117.932 51.134C118.117 50.6775 118.308 50.2211 118.493 49.7701C118.634 49.4346 118.774 49.0827 118.92 48.7197H123.418C123.559 49.0882 123.699 49.4456 123.823 49.7921C123.997 50.2596 124.148 50.6885 124.283 51.068C124.412 51.4364 124.513 51.7554 124.581 52.0139C124.671 52.3383 124.671 52.4318 124.671 52.4483C124.603 52.5143 124.519 52.5638 124.423 52.6023C124.3 52.6518 124.182 52.6848 124.07 52.7068C123.946 52.7288 123.89 52.7343 123.884 52.7343H123.267V54.1477H130.376V52.7233L129.786 52.6958C129.562 52.6848 129.371 52.6463 129.219 52.5748L129.23 52.5913ZM121.251 43.2258C121.402 43.6052 121.571 44.0177 121.745 44.4577C121.964 45.0021 122.194 45.5685 122.424 46.157C122.548 46.4704 122.671 46.7894 122.795 47.1029H119.611L120.161 45.783C120.431 45.1231 120.683 44.5346 120.908 44.0122C121.032 43.7317 121.144 43.4678 121.245 43.2313L121.251 43.2258Z" fill="#021D49"/>
<path d="M138.36 52.5644C138.141 52.4874 137.984 52.3884 137.9 52.2729C137.9 52.2729 137.844 52.1739 137.833 51.855C137.821 51.5195 137.816 51.1565 137.816 50.7771V44.1833C137.816 43.8588 137.816 43.5398 137.827 43.2209C137.833 42.8964 137.838 42.5664 137.838 42.2585C137.849 41.9505 137.861 41.626 137.866 41.2796C137.866 41.0376 137.911 40.8396 137.984 40.7076C138.085 40.5261 138.203 40.4216 138.377 40.3666C138.664 40.2732 138.928 40.2072 139.175 40.1742L139.708 40.0972V38.7663H132.459V40.1137L133.009 40.1742C133.306 40.2072 133.576 40.2677 133.801 40.3501C133.975 40.4106 134.115 40.5096 134.239 40.6581C134.239 40.6581 134.267 40.6911 134.289 40.7901C134.323 40.9331 134.351 41.0926 134.368 41.2631C134.385 41.45 134.396 41.6425 134.396 41.8625V47.5489C134.396 47.9394 134.396 48.3188 134.385 48.6873L134.362 49.7212C134.357 50.0402 134.351 50.2931 134.351 50.4801C134.351 50.6836 134.351 50.8926 134.34 51.1015C134.334 51.305 134.323 51.4975 134.3 51.679C134.284 51.844 134.261 51.9925 134.233 52.1189C134.222 52.1684 134.211 52.1959 134.216 52.1959C134.081 52.3444 133.913 52.4599 133.716 52.5424C133.469 52.6414 133.205 52.7129 132.925 52.7569L132.402 52.8394V54.1647H139.736V52.8064L139.175 52.7569C138.944 52.7349 138.686 52.6744 138.372 52.5699L138.36 52.5644Z" fill="#021D49"/>
<path d="M158.099 43.809C157.858 43.0941 157.532 42.4506 157.128 41.8897C156.724 41.3343 156.241 40.8503 155.701 40.4489C155.162 40.0474 154.584 39.7174 153.989 39.47C153.523 39.272 153.04 39.118 152.562 39.019C152.102 38.9255 151.63 38.854 151.164 38.81C150.709 38.7715 150.243 38.7495 149.783 38.7495H148.497C146.997 38.7495 145.711 38.7495 144.656 38.7605C143.6 38.766 142.791 38.7715 142.23 38.7715H141.612V40.1189L142.162 40.1794C142.466 40.2124 142.741 40.2729 142.982 40.3499C143.151 40.4049 143.297 40.5038 143.432 40.6578C143.432 40.6578 143.46 40.6908 143.482 40.7898C143.516 40.9328 143.544 41.0868 143.561 41.2573C143.578 41.4443 143.589 41.6477 143.589 41.8622V47.5486C143.589 47.9391 143.589 48.3185 143.578 48.687L143.555 49.7209C143.549 50.0399 143.544 50.2928 143.544 50.4853C143.544 50.6833 143.538 50.8923 143.527 51.1013C143.516 51.3102 143.499 51.5027 143.471 51.6842C143.448 51.8657 143.42 52.0307 143.392 52.1681C143.381 52.2066 143.375 52.2341 143.375 52.2396C143.308 52.3166 143.173 52.4266 142.892 52.5421C142.634 52.6521 142.365 52.7236 142.089 52.7511L141.539 52.8116V54.1589H149.496C150.136 54.1589 150.81 54.115 151.49 54.027C152.192 53.9335 152.877 53.774 153.523 53.554C154.185 53.3285 154.82 53.0206 155.409 52.6411C156.016 52.2506 156.555 51.7502 157.01 51.1618C157.465 50.5733 157.83 49.8584 158.094 49.05C158.352 48.2471 158.487 47.3067 158.487 46.2673C158.487 45.3544 158.363 44.5239 158.122 43.8035L158.099 43.809ZM147.974 52.5531C147.688 52.5036 147.469 52.3991 147.289 52.2231C147.289 52.2231 147.261 52.1901 147.222 52.0802C147.177 51.9537 147.143 51.8162 147.121 51.6512C147.093 51.4587 147.07 51.2552 147.054 51.0463C147.037 50.8538 147.025 50.6723 147.025 50.4853C147.014 50.0619 147.003 49.5229 147.003 48.83V46.5257C147.003 44.9254 147.009 43.611 147.025 42.5001C147.037 41.6532 147.059 40.9383 147.104 40.3664C147.216 40.3554 147.34 40.3444 147.475 40.3279C147.632 40.3114 147.8 40.3004 147.98 40.2894C148.671 40.2619 149.187 40.2839 149.597 40.3279C149.895 40.3609 150.176 40.3994 150.44 40.4489C151.041 40.5478 151.608 40.7788 152.119 41.1363C152.647 41.4992 153.113 41.9557 153.5 42.4836C153.893 43.0116 154.202 43.6165 154.421 44.2765C154.64 44.9364 154.752 45.6183 154.752 46.3112C154.752 47.9116 154.421 49.2644 153.764 50.3368C153.135 51.3707 152.164 52.0747 150.866 52.4376C150.597 52.5201 150.305 52.5751 149.996 52.6026C149.182 52.6796 148.598 52.6631 147.974 52.5476V52.5531Z" fill="#021D49"/>
</svg>